<mxfile host="app.diagrams.net" modified="2022-08-03T08:35:48.512Z" agent="5.0 (X11; Linux x86_64) AppleWebKit/537.36 (KHTML, like Gecko) Chrome/102.0.5005.136 Safari/537.36" etag="6fUrCmZ6nyGtfp9ivkEN" version="20.2.2" type="github">
  <diagram id="MtqZlg1Z4T-uL0hQoKmH" name="Page-1">
    <mxGraphModel dx="833" dy="471" grid="1" gridSize="10" guides="1" tooltips="1" connect="1" arrows="1" fold="1" page="1" pageScale="1" pageWidth="850" pageHeight="1100" math="0" shadow="0">
      <root>
        <mxCell id="0" />
        <mxCell id="1" parent="0" />
        <mxCell id="YM1SH59AXeZdGvOw2HDv-4" style="edgeStyle=orthogonalEdgeStyle;rounded=0;orthogonalLoop=1;jettySize=auto;html=1;entryX=0;entryY=0.5;entryDx=0;entryDy=0;" edge="1" parent="1" source="YM1SH59AXeZdGvOw2HDv-1" target="YM1SH59AXeZdGvOw2HDv-3">
          <mxGeometry relative="1" as="geometry" />
        </mxCell>
        <mxCell id="YM1SH59AXeZdGvOw2HDv-13" style="edgeStyle=orthogonalEdgeStyle;rounded=0;orthogonalLoop=1;jettySize=auto;html=1;exitX=1;exitY=0;exitDx=0;exitDy=0;entryX=0;entryY=0.5;entryDx=0;entryDy=0;" edge="1" parent="1" source="YM1SH59AXeZdGvOw2HDv-1" target="YM1SH59AXeZdGvOw2HDv-2">
          <mxGeometry relative="1" as="geometry" />
        </mxCell>
        <mxCell id="YM1SH59AXeZdGvOw2HDv-15" style="edgeStyle=orthogonalEdgeStyle;rounded=0;orthogonalLoop=1;jettySize=auto;html=1;exitX=1;exitY=1;exitDx=0;exitDy=0;entryX=0;entryY=0.5;entryDx=0;entryDy=0;" edge="1" parent="1" source="YM1SH59AXeZdGvOw2HDv-1" target="YM1SH59AXeZdGvOw2HDv-14">
          <mxGeometry relative="1" as="geometry" />
        </mxCell>
        <mxCell id="YM1SH59AXeZdGvOw2HDv-1" value="QA" style="ellipse;whiteSpace=wrap;html=1;" vertex="1" parent="1">
          <mxGeometry x="120" y="200" width="120" height="80" as="geometry" />
        </mxCell>
        <mxCell id="YM1SH59AXeZdGvOw2HDv-2" value="SDLC" style="rounded=1;whiteSpace=wrap;html=1;" vertex="1" parent="1">
          <mxGeometry x="280" y="90" width="120" height="60" as="geometry" />
        </mxCell>
        <mxCell id="YM1SH59AXeZdGvOw2HDv-8" style="edgeStyle=orthogonalEdgeStyle;rounded=0;orthogonalLoop=1;jettySize=auto;html=1;exitX=1;exitY=0.75;exitDx=0;exitDy=0;entryX=0;entryY=0.5;entryDx=0;entryDy=0;" edge="1" parent="1" source="YM1SH59AXeZdGvOw2HDv-3" target="YM1SH59AXeZdGvOw2HDv-7">
          <mxGeometry relative="1" as="geometry" />
        </mxCell>
        <mxCell id="YM1SH59AXeZdGvOw2HDv-12" style="edgeStyle=orthogonalEdgeStyle;rounded=0;orthogonalLoop=1;jettySize=auto;html=1;exitX=0.75;exitY=1;exitDx=0;exitDy=0;entryX=0;entryY=0.5;entryDx=0;entryDy=0;" edge="1" parent="1" source="YM1SH59AXeZdGvOw2HDv-3" target="YM1SH59AXeZdGvOw2HDv-9">
          <mxGeometry relative="1" as="geometry" />
        </mxCell>
        <mxCell id="YM1SH59AXeZdGvOw2HDv-17" style="edgeStyle=orthogonalEdgeStyle;rounded=0;orthogonalLoop=1;jettySize=auto;html=1;exitX=1;exitY=0.25;exitDx=0;exitDy=0;entryX=0;entryY=0.5;entryDx=0;entryDy=0;" edge="1" parent="1" source="YM1SH59AXeZdGvOw2HDv-3" target="YM1SH59AXeZdGvOw2HDv-5">
          <mxGeometry relative="1" as="geometry" />
        </mxCell>
        <mxCell id="YM1SH59AXeZdGvOw2HDv-3" value="Обязаности" style="rounded=1;whiteSpace=wrap;html=1;" vertex="1" parent="1">
          <mxGeometry x="280" y="210" width="120" height="60" as="geometry" />
        </mxCell>
        <mxCell id="YM1SH59AXeZdGvOw2HDv-5" value="Разработка тестовой документации" style="rounded=1;whiteSpace=wrap;html=1;" vertex="1" parent="1">
          <mxGeometry x="470" y="190" width="120" height="60" as="geometry" />
        </mxCell>
        <mxCell id="YM1SH59AXeZdGvOw2HDv-7" value="Проведение тестирования" style="rounded=1;whiteSpace=wrap;html=1;" vertex="1" parent="1">
          <mxGeometry x="470" y="270" width="120" height="60" as="geometry" />
        </mxCell>
        <mxCell id="YM1SH59AXeZdGvOw2HDv-9" value="Офрмление баг-репорта" style="rounded=1;whiteSpace=wrap;html=1;" vertex="1" parent="1">
          <mxGeometry x="470" y="340" width="120" height="60" as="geometry" />
        </mxCell>
        <mxCell id="YM1SH59AXeZdGvOw2HDv-20" style="edgeStyle=orthogonalEdgeStyle;rounded=0;orthogonalLoop=1;jettySize=auto;html=1;exitX=0.25;exitY=1;exitDx=0;exitDy=0;entryX=0.5;entryY=0;entryDx=0;entryDy=0;" edge="1" parent="1" source="YM1SH59AXeZdGvOw2HDv-14" target="YM1SH59AXeZdGvOw2HDv-18">
          <mxGeometry relative="1" as="geometry" />
        </mxCell>
        <mxCell id="YM1SH59AXeZdGvOw2HDv-21" style="edgeStyle=orthogonalEdgeStyle;rounded=0;orthogonalLoop=1;jettySize=auto;html=1;exitX=0.75;exitY=1;exitDx=0;exitDy=0;entryX=0.5;entryY=0;entryDx=0;entryDy=0;" edge="1" parent="1" source="YM1SH59AXeZdGvOw2HDv-14" target="YM1SH59AXeZdGvOw2HDv-19">
          <mxGeometry relative="1" as="geometry" />
        </mxCell>
        <mxCell id="YM1SH59AXeZdGvOw2HDv-14" value="Навыки" style="rounded=1;whiteSpace=wrap;html=1;" vertex="1" parent="1">
          <mxGeometry x="280" y="400" width="120" height="60" as="geometry" />
        </mxCell>
        <mxCell id="YM1SH59AXeZdGvOw2HDv-18" value="Hard skills" style="rounded=1;whiteSpace=wrap;html=1;fillColor=#dae8fc;strokeColor=#6c8ebf;" vertex="1" parent="1">
          <mxGeometry x="160" y="500" width="120" height="60" as="geometry" />
        </mxCell>
        <mxCell id="YM1SH59AXeZdGvOw2HDv-19" value="Soft skills" style="rounded=1;whiteSpace=wrap;html=1;" vertex="1" parent="1">
          <mxGeometry x="360" y="500" width="120" height="60" as="geometry" />
        </mxCell>
      </root>
    </mxGraphModel>
  </diagram>
</mxfile>
